<svg width="2680" height="2039" viewBox="0 0 2680 2039" fill="none" xmlns="http://www.w3.org/2000/svg">
<path d="M472 1676C370.667 1676 286 1657.9 218 1621.71C150 1585.51 98.6667 1529.88 64 1454.81C29.3333 1378.4 10 1279.87 6 1159.22L312 1112.97C313.333 1182.68 319.333 1238.99 330 1281.88C342 1324.78 358 1355.61 378 1374.38C399.333 1393.15 424.667 1402.53 454 1402.53C491.333 1402.53 515.333 1389.8 526 1364.33C538 1338.86 544 1312.04 544 1283.89C544 1216.87 528 1160.56 496 1114.99C464 1068.07 420.667 1021.15 366 974.229L226 851.57C164.667 799.289 112.667 740.306 70 674.619C28.6667 607.593 8 525.15 8 427.29C8 289.215 48.6667 183.983 130 111.594C211.333 37.8647 322 0.999939 462 0.999939C548.667 0.999939 618 15.7458 670 45.2377C723.333 74.7295 763.333 113.605 790 161.864C818 208.783 836.667 259.053 846 312.675C856.667 364.956 862.667 415.226 864 463.485L556 501.69C554.667 453.431 551.333 411.874 546 377.02C542 340.826 532.667 313.345 518 294.577C503.333 274.469 480.667 264.415 450 264.415C416.667 264.415 392 278.491 376 306.642C361.333 334.793 354 362.945 354 391.096C354 451.42 368 501.02 396 539.895C425.333 577.43 463.333 616.976 510 658.533L644 777.17C714.667 837.494 774 905.862 822 982.272C871.333 1058.68 896 1153.19 896 1265.8C896 1342.21 878.667 1411.91 844 1474.92C809.333 1536.58 760 1585.51 696 1621.71C633.333 1657.9 558.667 1676 472 1676Z" fill="white"/>
<path d="M72.9 2038.9C54.5 2038.9 39.9 2035.6 29.1 2029C18.5 2022.2 11 2012.8 6.6 2000.8C2.2 1988.6 0 1974.3 0 1957.9V1870.3C0 1853.5 2.2 1839.1 6.6 1827.1C11 1814.9 18.5 1805.5 29.1 1798.9C39.9 1792.3 54.5 1789 72.9 1789C90.9 1789 104.9 1792 114.9 1798C125.1 1803.8 132.3 1812 136.5 1822.6C140.7 1833.2 142.8 1845.4 142.8 1859.2V1880.2H90.3V1855.9C90.3 1851.1 90 1846.5 89.4 1842.1C89 1837.7 87.6 1834.1 85.2 1831.3C82.8 1828.3 78.7 1826.8 72.9 1826.8C67.3 1826.8 63.1 1828.3 60.3 1831.3C57.7 1834.3 56 1838.1 55.2 1842.7C54.6 1847.1 54.3 1851.8 54.3 1856.8V1971.1C54.3 1976.5 54.7 1981.5 55.5 1986.1C56.5 1990.5 58.3 1994.1 60.9 1996.9C63.7 1999.5 67.7 2000.8 72.9 2000.8C78.5 2000.8 82.5 1999.4 84.9 1996.6C87.3 1993.6 88.8 1989.8 89.4 1985.2C90 1980.6 90.3 1975.9 90.3 1971.1V1945.6H142.8V1966.6C142.8 1980.4 140.7 1992.8 136.5 2003.8C132.5 2014.6 125.4 2023.2 115.2 2029.6C105.2 2035.8 91.1 2038.9 72.9 2038.9Z" fill="white"/>
<path d="M201.771 2035.3V1936L155.571 1792.3H206.271L229.371 1869.1L250.071 1792.3H298.671L253.371 1936V2035.3H201.771Z" fill="white"/>
<path d="M319.12 2035.3V1792.3H382.42C392.82 1792.3 402.62 1793.1 411.82 1794.7C421.22 1796.3 429.52 1799.4 436.72 1804C443.92 1808.4 449.52 1814.8 453.52 1823.2C457.72 1831.4 459.82 1842.3 459.82 1855.9C459.82 1865.7 458.32 1874 455.32 1880.8C452.52 1887.4 448.42 1892.7 443.02 1896.7C437.82 1900.7 431.52 1903.4 424.12 1904.8C433.52 1906 441.42 1909.1 447.82 1914.1C454.22 1918.9 459.02 1925.4 462.22 1933.6C465.62 1941.8 467.32 1951.7 467.32 1963.3C467.32 1975.9 465.62 1986.8 462.22 1996C459.02 2005 454.32 2012.4 448.12 2018.2C441.92 2024 434.22 2028.3 425.02 2031.1C416.02 2033.9 405.62 2035.3 393.82 2035.3H319.12ZM372.82 1997.8H384.22C396.02 1997.8 404.12 1994.8 408.52 1988.8C413.12 1982.8 415.42 1974 415.42 1962.4C415.42 1953.2 414.42 1945.9 412.42 1940.5C410.42 1935.1 407.12 1931.2 402.52 1928.8C397.92 1926.2 391.72 1924.9 383.92 1924.9H372.82V1997.8ZM372.82 1889.5H383.32C391.52 1889.5 397.72 1888.3 401.92 1885.9C406.12 1883.3 408.92 1879.6 410.32 1874.8C411.92 1870 412.72 1864.2 412.72 1857.4C412.72 1851 411.52 1845.7 409.12 1841.5C406.92 1837.1 403.52 1833.8 398.92 1831.6C394.52 1829.4 388.92 1828.3 382.12 1828.3H372.82V1889.5Z" fill="white"/>
<path d="M495.487 2035.3V1792.3H604.688V1828.9H549.188V1889.2H591.487V1926.4H549.188V1999H605.288V2035.3H495.487Z" fill="white"/>
<path d="M629.667 2035.3V1792.3H696.567C712.967 1792.3 727.167 1794.1 739.167 1797.7C751.167 1801.3 760.467 1807.8 767.067 1817.2C773.867 1826.4 777.267 1839.5 777.267 1856.5C777.267 1866.5 776.467 1875.4 774.867 1883.2C773.267 1891 770.267 1897.8 765.867 1903.6C761.667 1909.2 755.567 1913.9 747.567 1917.7L780.867 2035.3H725.367L698.667 1926.4H683.367V2035.3H629.667ZM683.367 1895.5H698.367C705.967 1895.5 711.867 1894.2 716.067 1891.6C720.267 1888.8 723.167 1884.9 724.767 1879.9C726.567 1874.7 727.467 1868.5 727.467 1861.3C727.467 1850.9 725.567 1842.8 721.767 1837C717.967 1831.2 710.967 1828.3 700.767 1828.3H683.367V1895.5Z" fill="white"/>
<path d="M872.878 2038.9C857.678 2038.9 844.978 2036.2 834.778 2030.8C824.578 2025.4 816.878 2017.1 811.678 2005.9C806.478 1994.5 803.578 1979.8 802.978 1961.8L848.878 1954.9C849.078 1965.3 849.978 1973.7 851.578 1980.1C853.378 1986.5 855.778 1991.1 858.778 1993.9C861.978 1996.7 865.778 1998.1 870.178 1998.1C875.778 1998.1 879.378 1996.2 880.978 1992.4C882.778 1988.6 883.678 1984.6 883.678 1980.4C883.678 1970.4 881.278 1962 876.478 1955.2C871.678 1948.2 865.178 1941.2 856.978 1934.2L835.978 1915.9C826.778 1908.1 818.978 1899.3 812.578 1889.5C806.378 1879.5 803.278 1867.2 803.278 1852.6C803.278 1832 809.378 1816.3 821.578 1805.5C833.778 1794.5 850.378 1789 871.378 1789C884.378 1789 894.778 1791.2 902.578 1795.6C910.578 1800 916.578 1805.8 920.578 1813C924.778 1820 927.578 1827.5 928.978 1835.5C930.578 1843.3 931.478 1850.8 931.678 1858L885.478 1863.7C885.278 1856.5 884.778 1850.3 883.978 1845.1C883.378 1839.7 881.978 1835.6 879.778 1832.8C877.578 1829.8 874.178 1828.3 869.578 1828.3C864.578 1828.3 860.878 1830.4 858.478 1834.6C856.278 1838.8 855.178 1843 855.178 1847.2C855.178 1856.2 857.278 1863.6 861.478 1869.4C865.878 1875 871.578 1880.9 878.578 1887.1L898.678 1904.8C909.278 1913.8 918.178 1924 925.378 1935.4C932.778 1946.8 936.478 1960.9 936.478 1977.7C936.478 1989.1 933.878 1999.5 928.678 2008.9C923.478 2018.1 916.078 2025.4 906.478 2030.8C897.078 2036.2 885.878 2038.9 872.878 2038.9Z" fill="white"/>
<path d="M962.48 2035.3V1792.3H1071.68V1828.9H1016.18V1889.2H1058.48V1926.4H1016.18V1999H1072.28V2035.3H962.48Z" fill="white"/>
<path d="M1166.26 2038.9C1147.86 2038.9 1133.26 2035.6 1122.46 2029C1111.86 2022.2 1104.36 2012.8 1099.96 2000.8C1095.56 1988.6 1093.36 1974.3 1093.36 1957.9V1870.3C1093.36 1853.5 1095.56 1839.1 1099.96 1827.1C1104.36 1814.9 1111.86 1805.5 1122.46 1798.9C1133.26 1792.3 1147.86 1789 1166.26 1789C1184.26 1789 1198.26 1792 1208.26 1798C1218.46 1803.8 1225.66 1812 1229.86 1822.6C1234.06 1833.2 1236.16 1845.4 1236.16 1859.2V1880.2H1183.66V1855.9C1183.66 1851.1 1183.36 1846.5 1182.76 1842.1C1182.36 1837.7 1180.96 1834.1 1178.56 1831.3C1176.16 1828.3 1172.06 1826.8 1166.26 1826.8C1160.66 1826.8 1156.46 1828.3 1153.66 1831.3C1151.06 1834.3 1149.36 1838.1 1148.56 1842.7C1147.96 1847.1 1147.66 1851.8 1147.66 1856.8V1971.1C1147.66 1976.5 1148.06 1981.5 1148.86 1986.1C1149.86 1990.5 1151.66 1994.1 1154.26 1996.9C1157.06 1999.5 1161.06 2000.8 1166.26 2000.8C1171.86 2000.8 1175.86 1999.4 1178.26 1996.6C1180.66 1993.6 1182.16 1989.8 1182.76 1985.2C1183.36 1980.6 1183.66 1975.9 1183.66 1971.1V1945.6H1236.16V1966.6C1236.16 1980.4 1234.06 1992.8 1229.86 2003.8C1225.86 2014.6 1218.76 2023.2 1208.56 2029.6C1198.56 2035.8 1184.46 2038.9 1166.26 2038.9Z" fill="white"/>
<path d="M1335.9 2038.9C1317.3 2038.9 1302.7 2035.9 1292.1 2029.9C1281.7 2023.7 1274.4 2014.8 1270.2 2003.2C1266 1991.4 1263.9 1977 1263.9 1960V1792.3H1317V1968.1C1317 1973.1 1317.4 1978.1 1318.2 1983.1C1319 1988.1 1320.7 1992.2 1323.3 1995.4C1326.1 1998.6 1330.3 2000.2 1335.9 2000.2C1341.7 2000.2 1345.9 1998.6 1348.5 1995.4C1351.1 1992.2 1352.7 1988.1 1353.3 1983.1C1354.1 1978.1 1354.5 1973.1 1354.5 1968.1V1792.3H1407.9V1960C1407.9 1977 1405.7 1991.4 1401.3 2003.2C1397.1 2014.8 1389.8 2023.7 1379.4 2029.9C1369 2035.9 1354.5 2038.9 1335.9 2038.9Z" fill="white"/>
<path d="M1442.07 2035.3V1792.3H1508.97C1525.37 1792.3 1539.57 1794.1 1551.57 1797.7C1563.57 1801.3 1572.87 1807.8 1579.47 1817.2C1586.27 1826.4 1589.67 1839.5 1589.67 1856.5C1589.67 1866.5 1588.87 1875.4 1587.27 1883.2C1585.67 1891 1582.67 1897.8 1578.27 1903.6C1574.07 1909.2 1567.97 1913.9 1559.97 1917.7L1593.27 2035.3H1537.77L1511.07 1926.4H1495.77V2035.3H1442.07ZM1495.77 1895.5H1510.77C1518.37 1895.5 1524.27 1894.2 1528.47 1891.6C1532.67 1888.8 1535.57 1884.9 1537.17 1879.9C1538.97 1874.7 1539.87 1868.5 1539.87 1861.3C1539.87 1850.9 1537.97 1842.8 1534.17 1837C1530.37 1831.2 1523.37 1828.3 1513.17 1828.3H1495.77V1895.5Z" fill="white"/>
<path d="M1622.25 2035.3V1792.3H1675.95V2035.3H1622.25Z" fill="white"/>
<path d="M1734.09 2035.3V1832.2H1697.49V1792.3H1824.39V1832.2H1788.09V2035.3H1734.09Z" fill="white"/>
<path d="M1876.38 2035.3V1936L1830.18 1792.3H1880.88L1903.98 1869.1L1924.68 1792.3H1973.28L1927.98 1936V2035.3H1876.38Z" fill="white"/>
<path d="M2092.39 2035.3V1832.2H2055.79V1792.3H2182.69V1832.2H2146.39V2035.3H2092.39Z" fill="white"/>
<path d="M2204.08 2035.3V1792.3H2313.28V1828.9H2257.78V1889.2H2300.08V1926.4H2257.78V1999H2313.88V2035.3H2204.08Z" fill="white"/>
<path d="M2326.56 2035.3L2372.46 1792.3H2433.66L2478.96 2035.3H2429.46L2421.36 1984H2385.66L2377.26 2035.3H2326.56ZM2390.46 1951.9H2416.26L2403.36 1857.1L2390.46 1951.9Z" fill="white"/>
<path d="M2502.6 2035.3L2506.8 1792.3H2564.4L2591.1 1933.6L2619.9 1792.3H2675.4L2679.6 2035.3H2641.5L2637 1873.6L2608.8 2035.3H2574.9L2544.9 1872.4L2541.3 2035.3H2502.6Z" fill="white"/>
<path d="M2266 1675V0H2636V1675H2266Z" fill="white"/>
<path d="M2035 1676V1H1774.98L1432.42 807.482V1H1127V1676H1376.7L1719.26 807.482V1676H2035Z" fill="white"/>
</svg>
